<svg xmlns="http://www.w3.org/2000/svg" width="580" height="690" viewBox="0 0 580 690">
  <g id="Group_6200" data-name="Group 6200" transform="translate(535 22544)">
    <g id="Group_6199" data-name="Group 6199">
      <rect id="Rectangle_1817" data-name="Rectangle 1817" width="580" height="690" transform="translate(-535 -22544)" fill="none"/>
      <g id="Layer_1" data-name="Layer 1" transform="translate(-853.994 -22493.309)">
        <g id="Group_6180" data-name="Group 6180">
          <g id="NEW">
            <rect id="Rectangle_1724" data-name="Rectangle 1724" width="185.499" height="14.5" transform="translate(533.995 272.262)" fill="#ffba00"/>
            <path id="Path_205" data-name="Path 205" d="M545.552,141.113h2.85l3.15,8.274,3.179-8.274h2.847l-4.12,10.35,4.086,9.816,8.04-20.3h3.283l-9.949,23.784H556.3l-4.724-11.222-4.757,11.222h-2.613L534.3,140.982h3.25l8.073,20.3,4.055-9.815ZM575.3,165.1a8.908,8.908,0,0,1-3.618-.72,8.574,8.574,0,0,1-2.814-1.96,8.946,8.946,0,0,1-1.826-2.9,9.464,9.464,0,0,1-.653-3.5,9.327,9.327,0,0,1,.656-3.482,8.841,8.841,0,0,1,1.843-2.881,8.727,8.727,0,0,1,2.83-1.96,8.891,8.891,0,0,1,3.618-.72,8.5,8.5,0,0,1,8.122,5.545,9.361,9.361,0,0,1,.62,3.367c0,.246-.005.469-.017.67a3.52,3.52,0,0,1-.05.469h-14.5a6.789,6.789,0,0,0,.6,2.379,6.133,6.133,0,0,0,1.307,1.842,6.064,6.064,0,0,0,1.826,1.206,5.471,5.471,0,0,0,2.16.435,5.815,5.815,0,0,0,1.574-.217,6.813,6.813,0,0,0,1.441-.587,5.023,5.023,0,0,0,1.189-.9,3.719,3.719,0,0,0,.8-1.212l2.546.7a6.465,6.465,0,0,1-1.189,1.776,7.927,7.927,0,0,1-1.742,1.39,9,9,0,0,1-2.194.922,9.336,9.336,0,0,1-2.521.338Zm5.994-10.251a6.281,6.281,0,0,0-.62-2.294,6.125,6.125,0,0,0-1.306-1.792,5.983,5.983,0,0,0-6.245-1.155,5.681,5.681,0,0,0-1.826,1.166,5.933,5.933,0,0,0-1.273,1.792,6.569,6.569,0,0,0-.586,2.278Zm37.555,9.916H615.9v-9.781a7.317,7.317,0,0,0-.888-4.053,2.974,2.974,0,0,0-2.63-1.306,4.685,4.685,0,0,0-3.232,1.29,7.1,7.1,0,0,0-2.026,3.333v10.518h-2.95v-9.782a7.41,7.41,0,0,0-.871-4.087,2.954,2.954,0,0,0-2.613-1.273,4.773,4.773,0,0,0-3.216,1.257,6.811,6.811,0,0,0-2.043,3.333v10.552h-2.95V147.272h2.68v3.75a7.938,7.938,0,0,1,2.781-3,7.178,7.178,0,0,1,3.856-1.05,4.965,4.965,0,0,1,3.5,1.189,5.137,5.137,0,0,1,1.591,3.065q2.344-4.254,6.666-4.254a5.268,5.268,0,0,1,2.53.553,4.214,4.214,0,0,1,1.625,1.541,7.1,7.1,0,0,1,.871,2.328,14.837,14.837,0,0,1,.268,2.914Zm7.4.335a6.306,6.306,0,0,1-2.309-.419,5.769,5.769,0,0,1-1.859-1.156,5.439,5.439,0,0,1-1.241-1.725,5.12,5.12,0,0,1-.45-2.16,4.523,4.523,0,0,1,.536-2.194,4.985,4.985,0,0,1,1.524-1.691,7.84,7.84,0,0,1,2.345-1.1,10.361,10.361,0,0,1,2.965-.4,14.484,14.484,0,0,1,2.579.234,11.868,11.868,0,0,1,2.311.637v-1.409a4.215,4.215,0,0,0-4.623-4.589,9.773,9.773,0,0,0-5.561,2.043l-.977-1.909a12.085,12.085,0,0,1,6.8-2.278,7.463,7.463,0,0,1,5.376,1.842,6.843,6.843,0,0,1,1.926,5.192v7.135q0,1.038.938,1.072v2.546c-.313.044-.57.078-.771.1a5.884,5.884,0,0,1-.637.034,1.88,1.88,0,0,1-1.391-.52,2.139,2.139,0,0,1-.62-1.256l-.067-1.24a7.569,7.569,0,0,1-2.965,2.4,9.1,9.1,0,0,1-3.824.816Zm.77-2.211a7.3,7.3,0,0,0,2.931-.586,4.841,4.841,0,0,0,2.06-1.557,1.861,1.861,0,0,0,.636-1.306v-2.579a12.145,12.145,0,0,0-4.455-.837,6.315,6.315,0,0,0-3.6.938,2.835,2.835,0,0,0-1.391,2.446,3.281,3.281,0,0,0,1.085,2.473,3.836,3.836,0,0,0,1.222.737,4.2,4.2,0,0,0,1.517.271Zm23.952,1.876-6.032-8.542-3.339,3.151v5.392h-2.95V140.309h2.95v16.08l8.98-9.078h3.25l-6.968,7.236,7.3,10.217Zm10.887.335a8.913,8.913,0,0,1-3.619-.721,8.584,8.584,0,0,1-2.814-1.96,8.944,8.944,0,0,1-1.825-2.9,9.445,9.445,0,0,1-.654-3.5,9.315,9.315,0,0,1,.654-3.484,8.756,8.756,0,0,1,8.291-5.561,8.5,8.5,0,0,1,8.121,5.545,9.361,9.361,0,0,1,.62,3.367q0,.369-.017.67a3.52,3.52,0,0,1-.05.469h-14.5a6.765,6.765,0,0,0,.6,2.379,6.144,6.144,0,0,0,1.307,1.842,6.064,6.064,0,0,0,1.826,1.206,5.475,5.475,0,0,0,2.161.435,5.818,5.818,0,0,0,1.575-.217,6.851,6.851,0,0,0,1.44-.585,5.029,5.029,0,0,0,1.19-.9,3.711,3.711,0,0,0,.787-1.206l2.546.7a6.448,6.448,0,0,1-1.19,1.776,7.927,7.927,0,0,1-1.742,1.39,9,9,0,0,1-2.194.922,9.354,9.354,0,0,1-2.507.333Zm6-10.25a6.278,6.278,0,0,0-.62-2.294,6.126,6.126,0,0,0-1.306-1.792,5.986,5.986,0,0,0-6.248-1.156,5.664,5.664,0,0,0-1.826,1.172,5.933,5.933,0,0,0-1.273,1.792,6.569,6.569,0,0,0-.586,2.278Z" fill="#262736"/>
            <path id="Path_208" data-name="Path 208" d="M806.365,416.017a2.546,2.546,0,0,1-.25,1.125,2.624,2.624,0,0,1-.673.87,3.12,3.12,0,0,1-.99.555,3.643,3.643,0,0,1-1.207.2H798.2v-10.65h5.292a2.079,2.079,0,0,1,1.005.24,2.5,2.5,0,0,1,.765.622,2.828,2.828,0,0,1,.488.87,2.933,2.933,0,0,1,.172.982,2.849,2.849,0,0,1-.4,1.47,2.434,2.434,0,0,1-1.132,1,2.667,2.667,0,0,1,1.45,1A2.826,2.826,0,0,1,806.365,416.017ZM805,415.782a1.969,1.969,0,0,0-.128-.7,2,2,0,0,0-.345-.592,1.617,1.617,0,0,0-.517-.4,1.438,1.438,0,0,0-.66-.15H799.54v3.66h3.7a1.6,1.6,0,0,0,.69-.15,1.959,1.959,0,0,0,.555-.4A1.84,1.84,0,0,0,805,415.782Zm-5.457-6.5v3.559h3.39a1.533,1.533,0,0,0,.66-.143,1.658,1.658,0,0,0,.515-.383,1.863,1.863,0,0,0,.473-1.245,2.033,2.033,0,0,0-.12-.7,1.818,1.818,0,0,0-.322-.57,1.4,1.4,0,0,0-.5-.375,1.467,1.467,0,0,0-.622-.135Zm8.712,9.48V408.112h1.35v10.65Zm3.9,0V408.112h1.35v9.45h5.94v1.2Zm8.76,0V408.112h1.35v9.45h5.94v1.2Zm8.76,0V408.112h1.35v10.65Zm8.217.075a4.541,4.541,0,0,1-2.045-.458,5.062,5.062,0,0,1-1.582-1.215,5.524,5.524,0,0,1-1.022-1.732,5.71,5.71,0,0,1-.36-2,5.541,5.541,0,0,1,.383-2.04,5.6,5.6,0,0,1,1.057-1.725,5.1,5.1,0,0,1,1.6-1.192,4.555,4.555,0,0,1,2-.443,4.363,4.363,0,0,1,2.04.473,5.22,5.22,0,0,1,1.575,1.237,5.729,5.729,0,0,1,1.38,3.7,5.658,5.658,0,0,1-1.433,3.757,5.049,5.049,0,0,1-1.59,1.185,4.581,4.581,0,0,1-2,.447Zm-3.645-5.4a4.751,4.751,0,0,0,.263,1.568,4.356,4.356,0,0,0,.745,1.342,3.591,3.591,0,0,0,1.155.93,3.266,3.266,0,0,0,1.5.345,3.147,3.147,0,0,0,1.53-.368,3.762,3.762,0,0,0,1.15-.96,4.294,4.294,0,0,0,.717-1.342,4.821,4.821,0,0,0,.25-1.515,4.747,4.747,0,0,0-.262-1.567,4.132,4.132,0,0,0-.75-1.335,3.719,3.719,0,0,0-1.158-.923,3.385,3.385,0,0,0-3.008.015,3.673,3.673,0,0,0-1.15.945,4.307,4.307,0,0,0-.728,1.335,4.709,4.709,0,0,0-.253,1.53Zm11.9-2.8v8.13h-1.35v-10.65h1.05l6.6,8.3v-8.28h1.35v10.635h-1.14Zm-67.94,27.13V427.111h3.69a5.58,5.58,0,0,1,2.243.42,4.571,4.571,0,0,1,1.612,1.14,4.74,4.74,0,0,1,.967,1.687,6.508,6.508,0,0,1,.323,2.063,6.34,6.34,0,0,1-.36,2.2,4.571,4.571,0,0,1-2.663,2.76,5.637,5.637,0,0,1-2.122.38Zm7.47-5.34a5.312,5.312,0,0,0-.247-1.66,3.536,3.536,0,0,0-.735-1.3,3.413,3.413,0,0,0-1.192-.848,3.953,3.953,0,0,0-1.6-.3h-2.34v8.25h2.34a3.988,3.988,0,0,0,1.628-.315,3.269,3.269,0,0,0,1.185-.87,3.846,3.846,0,0,0,.72-1.312,5.281,5.281,0,0,0,.247-1.646Zm7.59,5.415a4.547,4.547,0,0,1-2.05-.457,5.062,5.062,0,0,1-1.582-1.215,5.518,5.518,0,0,1-1.02-1.732,5.737,5.737,0,0,1-.36-2,5.541,5.541,0,0,1,.383-2.04,5.615,5.615,0,0,1,1.062-1.721,5.1,5.1,0,0,1,1.6-1.192,4.555,4.555,0,0,1,2-.443,4.368,4.368,0,0,1,2.04.473,5.221,5.221,0,0,1,1.575,1.237,5.729,5.729,0,0,1,1.38,3.7,5.658,5.658,0,0,1-1.433,3.757,5.048,5.048,0,0,1-1.59,1.185,4.577,4.577,0,0,1-2,.441Zm-3.645-5.4a4.749,4.749,0,0,0,.263,1.567,4.346,4.346,0,0,0,.742,1.342,3.591,3.591,0,0,0,1.155.93,3.253,3.253,0,0,0,1.5.345,3.146,3.146,0,0,0,1.53-.367,3.762,3.762,0,0,0,1.15-.96,4.3,4.3,0,0,0,.72-1.342,4.821,4.821,0,0,0,.25-1.515,4.726,4.726,0,0,0-.262-1.568,4.132,4.132,0,0,0-.75-1.335,3.731,3.731,0,0,0-1.155-.922,3.385,3.385,0,0,0-3.008.015,3.672,3.672,0,0,0-1.15.945,4.308,4.308,0,0,0-.728,1.335,4.7,4.7,0,0,0-.256,1.529Zm14.04-5.265h1.275l1.41,3.7,1.425-3.7h1.275l-1.847,4.63,1.83,4.395,3.6-9.09h1.47l-4.455,10.65h-1.17l-2.115-5.025-2.13,5.025h-1.17l-4.44-10.65h1.455l3.615,9.09,1.815-4.395Zm13.185,2.46v8.13h-1.35V427.111h1.05l6.6,8.3v-8.28h1.35v10.635h-1.14Zm10.2,8.13V427.111h1.35v9.45h5.94v1.2Zm12.75.075a4.551,4.551,0,0,1-2.047-.457,5.062,5.062,0,0,1-1.582-1.215,5.517,5.517,0,0,1-1.02-1.732,5.736,5.736,0,0,1-.36-2,5.643,5.643,0,0,1,1.437-3.761,5.1,5.1,0,0,1,1.6-1.192,4.554,4.554,0,0,1,2-.443,4.368,4.368,0,0,1,2.04.473,5.222,5.222,0,0,1,1.575,1.237,5.74,5.74,0,0,1,1.38,3.7,5.651,5.651,0,0,1-1.432,3.757,5.059,5.059,0,0,1-1.59,1.185,4.577,4.577,0,0,1-2,.441Zm-3.645-5.4a4.777,4.777,0,0,0,.262,1.567,4.347,4.347,0,0,0,.742,1.342,3.591,3.591,0,0,0,1.155.93,3.254,3.254,0,0,0,1.5.345,3.146,3.146,0,0,0,1.53-.367,3.762,3.762,0,0,0,1.15-.96,4.3,4.3,0,0,0,.72-1.342,4.821,4.821,0,0,0,.25-1.515,4.726,4.726,0,0,0-.262-1.568,4.143,4.143,0,0,0-.75-1.335,3.757,3.757,0,0,0-1.155-.922,3.383,3.383,0,0,0-3.007.015,3.673,3.673,0,0,0-1.15.945,4.308,4.308,0,0,0-.728,1.335,4.7,4.7,0,0,0-.256,1.529Zm13.4-5.325h1.14l4.35,10.65h-1.44l-1.26-3.12h-4.47l-1.245,3.12h-1.44Zm2.49,6.48-1.92-4.92-1.98,4.92Zm4.425,4.17V427.111h3.69a5.575,5.575,0,0,1,2.242.42,4.57,4.57,0,0,1,1.612,1.14,4.739,4.739,0,0,1,.967,1.687,6.51,6.51,0,0,1,.323,2.063,6.339,6.339,0,0,1-.36,2.2,4.571,4.571,0,0,1-2.663,2.76,5.637,5.637,0,0,1-2.122.38Zm7.47-5.34a5.312,5.312,0,0,0-.247-1.66,3.535,3.535,0,0,0-.738-1.3,3.413,3.413,0,0,0-1.192-.848,3.973,3.973,0,0,0-1.6-.308h-2.337v8.25h2.34a3.988,3.988,0,0,0,1.628-.315,3.27,3.27,0,0,0,1.185-.87,3.846,3.846,0,0,0,.72-1.312,5.266,5.266,0,0,0,.247-1.648Zm9.525-3.075a2.191,2.191,0,0,0-.48-.4,4.284,4.284,0,0,0-.675-.352,4.672,4.672,0,0,0-.818-.255,4.208,4.208,0,0,0-.923-.1,2.9,2.9,0,0,0-1.822.465,1.548,1.548,0,0,0-.577,1.275,1.41,1.41,0,0,0,.165.72,1.369,1.369,0,0,0,.518.487,3.984,3.984,0,0,0,.878.35q.525.15,1.245.315a12.627,12.627,0,0,1,1.492.413,4.308,4.308,0,0,1,1.14.577,2.326,2.326,0,0,1,.72.84,2.693,2.693,0,0,1,.248,1.215,2.791,2.791,0,0,1-.3,1.327,2.658,2.658,0,0,1-.817.93,3.539,3.539,0,0,1-1.222.54,6.459,6.459,0,0,1-1.53.172,7.09,7.09,0,0,1-2.332-.382,6.522,6.522,0,0,1-2-1.118l.645-1.14a3.545,3.545,0,0,0,.622.51,5.119,5.119,0,0,0,.87.457,6.429,6.429,0,0,0,1.05.33,5.359,5.359,0,0,0,1.177.128,3.267,3.267,0,0,0,1.767-.4,1.5,1.5,0,0,0,.427-1.972,1.711,1.711,0,0,0-.592-.533,4.565,4.565,0,0,0-.967-.4q-.577-.174-1.312-.352a13.142,13.142,0,0,1-1.425-.42,3.927,3.927,0,0,1-1.027-.54,2.039,2.039,0,0,1-.622-.765,2.539,2.539,0,0,1-.21-1.08,3.038,3.038,0,0,1,.285-1.35,2.82,2.82,0,0,1,.8-.99,3.456,3.456,0,0,1,1.215-.608,5.528,5.528,0,0,1,1.53-.2,5.358,5.358,0,0,1,3.495,1.215Z" fill="#2b2b38"/>
            <path id="Path_206" data-name="Path 206" d="M695.4,411.232h-5.475v-1.215h7.56l-5.355,10.65h-1.5Zm6.15,2.82a3.737,3.737,0,0,1,1.372.248,3.265,3.265,0,0,1,1.1.7,3.3,3.3,0,0,1,.738,1.077,3.473,3.473,0,0,1,.27,1.38,3.512,3.512,0,0,1-.292,1.447,3.37,3.37,0,0,1-.8,1.117,3.618,3.618,0,0,1-1.2.72,4.208,4.208,0,0,1-1.47.255,3.977,3.977,0,0,1-2.055-.54,3.55,3.55,0,0,1-1.38-1.44l.825-.72a3.254,3.254,0,0,0,1.118,1.11,2.873,2.873,0,0,0,1.507.42,2.633,2.633,0,0,0,.95-.173,2.307,2.307,0,0,0,.765-.48,2.143,2.143,0,0,0,.505-.742,2.488,2.488,0,0,0,.18-.96,2.3,2.3,0,0,0-.18-.915,2.194,2.194,0,0,0-.487-.72,2.132,2.132,0,0,0-.728-.465,2.45,2.45,0,0,0-.9-.165,2.624,2.624,0,0,0-1.207.285,2.452,2.452,0,0,0-.923.81H698.07l.075-.382q.06-.308.15-.75t.2-.982q.105-.54.21-1.1.255-1.29.57-2.9h5.175v1.215h-4.2l-.645,3.39a2.344,2.344,0,0,1,.825-.55,2.939,2.939,0,0,1,1.113-.2Zm9.18-1.155v1.08h-1.77v1.92h-1.2v-1.915h-1.77V412.9h1.77v-1.92h1.2v1.92ZM683.2,436.322a4.32,4.32,0,0,1-3.24,1.515,4.265,4.265,0,0,1-1.972-.465,5.2,5.2,0,0,1-1.568-1.223,5.891,5.891,0,0,1-1.045-1.732,5.447,5.447,0,0,1-.382-2.01,5.653,5.653,0,0,1,1.41-3.76,4.9,4.9,0,0,1,1.575-1.177,5.043,5.043,0,0,1,4.522.212,4.277,4.277,0,0,1,1.522,1.68l-1.035.72a3.237,3.237,0,0,0-1.275-1.38,3.56,3.56,0,0,0-1.785-.45,3.072,3.072,0,0,0-1.47.352,3.621,3.621,0,0,0-1.125.93,4.309,4.309,0,0,0-.72,1.335,4.888,4.888,0,0,0-.255,1.568,4.528,4.528,0,0,0,.285,1.612,4.4,4.4,0,0,0,.78,1.335,3.622,3.622,0,0,0,1.17.907,3.309,3.309,0,0,0,1.47.33,4.041,4.041,0,0,0,3.135-1.68v-1.47h-2.3v-1.02h3.435v5.31h-1.142Zm6.435-9.21h1.14l4.35,10.65h-1.44l-1.26-3.12h-4.47l-1.245,3.119h-1.44Zm2.49,6.48-1.92-4.92-1.98,4.92Zm13.632,4.17v-8.235l-3.54,6.315h-.765l-3.553-6.315v8.234h-1.35v-10.65h1.425l3.855,6.915,3.87-6.915h1.41v10.65Zm11.13-1.2v1.2h-7.23v-10.65h7.1v1.2h-5.742v3.45H716v1.12H711v3.674Zm8.1-7.215a2.194,2.194,0,0,0-.48-.4,4.284,4.284,0,0,0-.675-.352,4.668,4.668,0,0,0-.818-.255,4.2,4.2,0,0,0-.922-.1,2.889,2.889,0,0,0-1.823.465,1.544,1.544,0,0,0-.577,1.275,1.41,1.41,0,0,0,.165.72,1.369,1.369,0,0,0,.517.488,3.957,3.957,0,0,0,.877.35q.525.15,1.245.315a12.625,12.625,0,0,1,1.492.413,4.308,4.308,0,0,1,1.14.577,2.306,2.306,0,0,1,.72.84,2.692,2.692,0,0,1,.248,1.215,2.792,2.792,0,0,1-.3,1.327,2.67,2.67,0,0,1-.818.93,3.538,3.538,0,0,1-1.222.54,6.512,6.512,0,0,1-1.53.173,7.091,7.091,0,0,1-2.332-.382,6.534,6.534,0,0,1-2-1.118l.645-1.14a3.579,3.579,0,0,0,.622.51,5.115,5.115,0,0,0,.87.457,6.427,6.427,0,0,0,1.05.33,5.36,5.36,0,0,0,1.177.128,3.278,3.278,0,0,0,1.77-.4,1.5,1.5,0,0,0,.428-1.972,1.7,1.7,0,0,0-.593-.533,4.566,4.566,0,0,0-.967-.4q-.579-.174-1.312-.352a13.134,13.134,0,0,1-1.425-.42,3.925,3.925,0,0,1-1.027-.54,2.042,2.042,0,0,1-.623-.765,2.554,2.554,0,0,1-.21-1.08,3.038,3.038,0,0,1,.285-1.35,2.821,2.821,0,0,1,.8-.99,3.455,3.455,0,0,1,1.215-.607,5.528,5.528,0,0,1,1.53-.2,5.35,5.35,0,0,1,3.495,1.215Z" fill="#2b2b38"/>
            <g id="Group_6139" data-name="Group 6139">
              <g id="Path_138" data-name="Path 138">
                <path id="Path_204" data-name="Path 204" d="M586.076,355.273a1.5,1.5,0,0,1-1.5-1.466c-.023-.982-.081-9.682,4.7-12.8,2.236-1.458,5.031-1.422,8.307.109,1.945.908,4.6,1.759,6.186.647,1.822-1.274,1.942-4.79,1.834-6.038a1.5,1.5,0,0,1,2.988-.267c.023.252.52,6.22-3.094,8.757-2.217,1.557-5.307,1.43-9.184-.381-2.273-1.063-4.09-1.168-5.4-.315-2.888,1.885-3.391,8.018-3.34,10.222a1.5,1.5,0,0,1-1.466,1.533Z" fill="#ffba00"/>
              </g>
              <g id="Icon_awesome-gamepad" data-name="Icon awesome-gamepad">
                <path id="Path_211" data-name="Path 211" d="M571.591,384.774h-.005a15.36,15.36,0,0,1,.006-30.719h29.227a15.358,15.358,0,1,1-10.748,26.336h-7.734A15.46,15.46,0,0,1,571.591,384.774Zm0-29.22a13.86,13.86,0,0,0-.006,27.72h.005a13.943,13.943,0,0,0,9.9-4.158l.221-.225H590.7l.221.225a13.859,13.859,0,1,0,19.867-19.329l-.077-.078a13.943,13.943,0,0,0-9.889-4.155Zm-1.818,23.377a1.856,1.856,0,0,1-1.845-1.842v-4h-4a1.858,1.858,0,0,1-1.846-1.842v-3.653a1.855,1.855,0,0,1,1.842-1.845h4v-4a1.855,1.855,0,0,1,1.842-1.845h3.655a1.855,1.855,0,0,1,1.846,1.842v4h4a1.855,1.855,0,0,1,1.845,1.842v3.656a1.855,1.855,0,0,1-1.841,1.842h-4v4a1.857,1.857,0,0,1-1.842,1.845Zm-1.1-7.345h.75v5.5a.351.351,0,0,0,.348.345h3.647a.351.351,0,0,0,.345-.348v-5.5h5.5a.351.351,0,0,0,.344-.347v-3.654a.35.35,0,0,0-.349-.345h-5.5v-5.5a.35.35,0,0,0-.349-.345h-3.65a.349.349,0,0,0-.345.348v5.5h-5.5a.351.351,0,0,0-.346.349v3.647a.35.35,0,0,0,.349.345Zm28.486,6.614h0a5.13,5.13,0,1,1,.005,0Zm0-8.766a3.633,3.633,0,1,0,3.633,3.633h0A3.635,3.635,0,0,0,597.159,369.434Z" fill="#262736"/>
              </g>
              <path id="Path_137" data-name="Path 137" d="M604.468,370.143a4.383,4.383,0,1,1,4.383-4.383h0A4.385,4.385,0,0,1,604.468,370.143Z" fill="#ef9322"/>
            </g>
            <path id="Path_204-2" data-name="Path 204" d="M535.051,204.935a17,17,0,0,1,4.608-11.568,17.485,17.485,0,0,1,5.472-3.888,18.949,18.949,0,0,1,15.914.552,13.285,13.285,0,0,1,5.4,5.4l-7.15,5.088a6.006,6.006,0,0,0-1.272-2.062,6.434,6.434,0,0,0-1.75-1.3,7.467,7.467,0,0,0-1.992-.672,10.913,10.913,0,0,0-1.992-.192,6.99,6.99,0,0,0-5.88,2.856,8.9,8.9,0,0,0-1.392,2.88,11.644,11.644,0,0,0-.456,3.192,11.014,11.014,0,0,0,.528,3.408,8.906,8.906,0,0,0,1.536,2.88A7.5,7.5,0,0,0,549.1,213.5a7.166,7.166,0,0,0,3.288.744,9.432,9.432,0,0,0,1.968-.216,7.327,7.327,0,0,0,1.944-.72,6.6,6.6,0,0,0,1.68-1.3,5.778,5.778,0,0,0,1.168-1.944l7.632,4.56a9.734,9.734,0,0,1-2.328,3.36,14.825,14.825,0,0,1-3.55,2.5,18.855,18.855,0,0,1-4.272,1.536,19.693,19.693,0,0,1-4.44.528,15.79,15.79,0,0,1-6.936-1.512,17.613,17.613,0,0,1-5.424-4.008,18.213,18.213,0,0,1-3.528-5.664A17.421,17.421,0,0,1,535.051,204.935Zm59.808,17.328h-9.12V208.057a3.723,3.723,0,0,0-.84-2.712,2.835,2.835,0,0,0-2.088-.84,2.648,2.648,0,0,0-1.032.264,5.941,5.941,0,0,0-1.2.72,6.393,6.393,0,0,0-1.992,2.614v14.162h-9.12v-35.04h9.12v13.532a8.833,8.833,0,0,1,3.5-3.146,10.69,10.69,0,0,1,4.85-1.08,8.431,8.431,0,0,1,4.224.912,6.475,6.475,0,0,1,2.4,2.28,8.078,8.078,0,0,1,1.056,2.95,20.027,20.027,0,0,1,.24,2.976Zm11.856.48a9.73,9.73,0,0,1-3.5-.624,8.692,8.692,0,0,1-2.808-1.706,7.823,7.823,0,0,1-1.85-2.568,7.728,7.728,0,0,1-.672-3.216,7.514,7.514,0,0,1,.816-3.5,8.406,8.406,0,0,1,2.256-2.736,10.4,10.4,0,0,1,3.432-1.776,14.648,14.648,0,0,1,4.392-.624,11.821,11.821,0,0,1,5.088.96v-.766a3.245,3.245,0,0,0-1.032-2.64,5.174,5.174,0,0,0-3.34-.865,11.082,11.082,0,0,0-3.984.7,19.521,19.521,0,0,0-3.84,2.04l-2.64-5.664a20.538,20.538,0,0,1,11.376-3.216q6.05,0,9.312,2.688t3.264,8.064v4.9a3.1,3.1,0,0,0,.384,1.8,1.836,1.836,0,0,0,1.344.6v7.68q-1.1.24-2.088.36a14.629,14.629,0,0,1-1.75.12,6.485,6.485,0,0,1-3.72-.888,4.144,4.144,0,0,1-1.656-2.616l-.192-.912a11.626,11.626,0,0,1-3.888,3.286A10.214,10.214,0,0,1,606.715,222.743Zm2.736-6.53a5.736,5.736,0,0,0,1.68-.264,6.182,6.182,0,0,0,1.536-.7,3.934,3.934,0,0,0,.864-.84,1.562,1.562,0,0,0,.336-.936V211.6a12.972,12.972,0,0,0-1.776-.48,8.8,8.8,0,0,0-1.728-.192,4.554,4.554,0,0,0-2.784.816,2.47,2.47,0,0,0-1.1,2.064,2.116,2.116,0,0,0,.84,1.728,3.31,3.31,0,0,0,2.132.676Zm35.712-11.424a18.585,18.585,0,0,0-4.8.576,5.847,5.847,0,0,0-3.216,1.92v14.978h-9.12v-25.25h8.35v4.8a10.648,10.648,0,0,1,3.336-3.912,7.442,7.442,0,0,1,4.3-1.368,8.031,8.031,0,0,1,1.15.05Zm20.544,16.08a28.013,28.013,0,0,1-4.1,1.368,17.566,17.566,0,0,1-4.3.55,11.011,11.011,0,0,1-2.928-.384,6.352,6.352,0,0,1-2.424-1.25,5.969,5.969,0,0,1-1.632-2.256,8.727,8.727,0,0,1-.6-3.456V203.882H646.6v-6.866h3.12V189.1h9.122v7.92h4.944v6.866h-4.948v8.35a2.366,2.366,0,0,0,.528,1.75,2,2,0,0,0,1.44.5,6.474,6.474,0,0,0,1.536-.216,10.642,10.642,0,0,0,1.728-.6Zm39.216-24.526h-9.792v25.92h-9.36v-25.92h-9.84v-8.161h28.992Zm11.184,26.4a15.33,15.33,0,0,1-5.976-1.08,12.937,12.937,0,0,1-4.32-2.88,11.907,11.907,0,0,1-2.64-4.176,14.341,14.341,0,0,1,0-9.936,11.876,11.876,0,0,1,2.64-4.176,12.922,12.922,0,0,1,4.32-2.88,17,17,0,0,1,11.926,0,12.877,12.877,0,0,1,4.344,2.88,11.861,11.861,0,0,1,2.64,4.176,14.341,14.341,0,0,1,0,9.936,11.893,11.893,0,0,1-2.64,4.176,12.877,12.877,0,0,1-4.344,2.88,15.391,15.391,0,0,1-5.951,1.08Zm-4.462-13.1a5.88,5.88,0,0,0,1.25,3.984,4.311,4.311,0,0,0,6.432,0,6.973,6.973,0,0,0,0-7.968,4.311,4.311,0,0,0-6.432,0,5.874,5.874,0,0,0-1.254,3.98Zm38.494,13.1a9.928,9.928,0,0,1-4.75-1.08,7.485,7.485,0,0,1-3.12-3.144v13.963h-9.128V197.013h7.92V200.8a9.48,9.48,0,0,1,3.312-3.168,9.79,9.79,0,0,1,4.85-1.1,11.086,11.086,0,0,1,4.656.984,10.956,10.956,0,0,1,3.7,2.712A12.848,12.848,0,0,1,760,204.361a14.846,14.846,0,0,1,.888,5.184,16.376,16.376,0,0,1-.816,5.256,13.358,13.358,0,0,1-2.256,4.2,10.273,10.273,0,0,1-3.408,2.76,9.434,9.434,0,0,1-4.27.982Zm-3.168-7.68a3.987,3.987,0,0,0,1.85-.432,4.326,4.326,0,0,0,1.44-1.2,6.34,6.34,0,0,0,.96-1.776,6.406,6.406,0,0,0,.36-2.16,5.342,5.342,0,0,0-1.368-3.84,4.764,4.764,0,0,0-3.624-1.44,5.153,5.153,0,0,0-4.32,2.592v4.368a7.011,7.011,0,0,0,1.968,2.784,4.172,4.172,0,0,0,2.733,1.1Zm34.224,7.68a9.928,9.928,0,0,1-4.75-1.08,7.484,7.484,0,0,1-3.12-3.144v13.963h-9.12V197.013h7.92V200.8a9.48,9.48,0,0,1,3.312-3.168,9.769,9.769,0,0,1,4.85-1.1,11.085,11.085,0,0,1,4.656.984,10.957,10.957,0,0,1,3.7,2.712,12.848,12.848,0,0,1,2.424,4.128,14.805,14.805,0,0,1,.882,5.186,16.374,16.374,0,0,1-.816,5.256,13.41,13.41,0,0,1-2.256,4.2,10.251,10.251,0,0,1-3.408,2.76,9.427,9.427,0,0,1-4.275.98Zm-3.168-7.68a3.988,3.988,0,0,0,1.85-.432,4.336,4.336,0,0,0,1.44-1.2,6.34,6.34,0,0,0,.96-1.776,6.4,6.4,0,0,0,.36-2.16,5.347,5.347,0,0,0-1.368-3.84,4.761,4.761,0,0,0-3.628-1.442,5.153,5.153,0,0,0-4.32,2.592v4.368a7.012,7.012,0,0,0,1.968,2.784,4.174,4.174,0,0,0,2.737,1.106Zm17.232,7.2v-25.25h9.12v25.25Zm0-27.36v-7.68h9.12v7.68Zm39.12,27.36h-9.12V208.057a3.723,3.723,0,0,0-.84-2.712,2.669,2.669,0,0,0-1.944-.84,4.066,4.066,0,0,0-2.45,1.008,5.985,5.985,0,0,0-1.92,2.592v14.16h-9.12v-25.25h8.21v3.744a8.489,8.489,0,0,1,3.768-3.144,14,14,0,0,1,5.736-1.08,7.747,7.747,0,0,1,4.1.936,6.528,6.528,0,0,1,2.3,2.328,8.534,8.534,0,0,1,1.032,2.976,19.277,19.277,0,0,1,.24,2.88Zm14.112,0a10.2,10.2,0,0,1-4.488-.984,10.449,10.449,0,0,1-3.48-2.688,12.37,12.37,0,0,1-2.232-4.008,16.2,16.2,0,0,1,.072-10.224,12.281,12.281,0,0,1,2.424-4.128,11.209,11.209,0,0,1,3.72-2.712,11.328,11.328,0,0,1,4.75-.984,10.192,10.192,0,0,1,4.8,1.08,8.014,8.014,0,0,1,3.264,3.144v-3.746h7.924v22.944a12.728,12.728,0,0,1-1.1,5.376,11.515,11.515,0,0,1-3.12,4.08,14.679,14.679,0,0,1-4.85,2.616,19.952,19.952,0,0,1-6.288.936,18.039,18.039,0,0,1-7.008-1.25,15.988,15.988,0,0,1-5.28-3.6l4.8-4.992a12.446,12.446,0,0,0,3.336,2.188,9.886,9.886,0,0,0,4.15.888,8.27,8.27,0,0,0,2.376-.336,5.365,5.365,0,0,0,1.992-1.08,5.125,5.125,0,0,0,1.368-1.944,7.423,7.423,0,0,0,.5-2.88v-1.634a6.821,6.821,0,0,1-3.144,2.976,10.422,10.422,0,0,1-4.488.962Zm3.264-7.2a4.459,4.459,0,0,0,2.424-.65,7,7,0,0,0,1.944-1.944v-4.512a6.166,6.166,0,0,0-1.992-2.736,4.477,4.477,0,0,0-2.76-1.008,3.713,3.713,0,0,0-1.8.456,5.047,5.047,0,0,0-1.464,1.2,5.239,5.239,0,0,0-.96,1.776,7.007,7.007,0,0,0-.336,2.184,5.228,5.228,0,0,0,1.392,3.792,4.728,4.728,0,0,0,3.55,1.442Z" fill="#ee9222"/>
            <g id="Group_6143" data-name="Group 6143">
              <g id="Icon_feather-arrow-up" data-name="Icon feather-arrow-up">
                <g id="Path_148" data-name="Path 148">
                  <path id="Path_252" data-name="Path 252" d="M809.266,622.261a1.5,1.5,0,0,1-1.5-1.5v-55.97a1.5,1.5,0,0,1,3,0v55.97A1.5,1.5,0,0,1,809.266,622.261Z" fill="#ee9222"/>
                </g>
                <g id="Path_149" data-name="Path 149">
                  <path id="Path_253" data-name="Path 253" d="M809.266,622.261a1.5,1.5,0,0,1-1.061-.439l-5.25-5.25a1.5,1.5,0,0,1,2.121-2.121l4.19,4.189,4.189-4.189a1.5,1.5,0,0,1,2.121,2.121l-5.25,5.25A1.5,1.5,0,0,1,809.266,622.261Z" fill="#ee9222"/>
                </g>
              </g>
              <path id="Path_210" data-name="Path 210" d="M832.6,528.582V529.8l-11.36,4.64V532.9l3.328-1.344v-4.776l-3.328-1.328v-1.536Zm-6.91,2.656,5.25-2.05-5.25-2.11Zm-4.61,8.992a3.294,3.294,0,0,1,.51-1.832,3.884,3.884,0,0,1,1.3-1.256h-5.058v-1.408H829.6v1.25h-1.568a3.876,3.876,0,0,1,1.24,1.288,3.355,3.355,0,0,1,.472,1.75,3.558,3.558,0,0,1-.35,1.584,3.955,3.955,0,0,1-.95,1.25,4.468,4.468,0,0,1-1.384.824,4.594,4.594,0,0,1-1.632.3,5.153,5.153,0,0,1-1.688-.272,4.21,4.21,0,0,1-1.376-.768,3.741,3.741,0,0,1-.93-1.186,3.362,3.362,0,0,1-.348-1.529Zm1.216-.432a2.4,2.4,0,0,0,.264,1.128,2.789,2.789,0,0,0,.7.864,3.207,3.207,0,0,0,1,.55,3.545,3.545,0,0,0,1.15.192,3.28,3.28,0,0,0,2.184-.832,2.884,2.884,0,0,0,.672-.9,2.576,2.576,0,0,0,.25-1.128,2.257,2.257,0,0,0-.15-.792,3.463,3.463,0,0,0-.4-.768,2.721,2.721,0,0,0-.592-.624,1.781,1.781,0,0,0-.728-.344h-2.384a3.6,3.6,0,0,0-.776.45,3.147,3.147,0,0,0-.626.626,3.076,3.076,0,0,0-.416.75,2.338,2.338,0,0,0-.15.823Zm-1.216,10.4a3.294,3.294,0,0,1,.51-1.832,3.884,3.884,0,0,1,1.3-1.256h-5.058V545.7H829.6v1.25h-1.568a3.875,3.875,0,0,1,1.24,1.288,3.355,3.355,0,0,1,.472,1.75,3.557,3.557,0,0,1-.35,1.584,3.955,3.955,0,0,1-.95,1.25,4.468,4.468,0,0,1-1.384.824,4.594,4.594,0,0,1-1.632.3,5.154,5.154,0,0,1-1.688-.272,4.212,4.212,0,0,1-1.376-.768,3.724,3.724,0,0,1-.93-1.188,3.353,3.353,0,0,1-.348-1.527Zm1.216-.432a2.4,2.4,0,0,0,.264,1.128,2.788,2.788,0,0,0,.7.864,3.207,3.207,0,0,0,1,.55,3.544,3.544,0,0,0,1.15.192,3.28,3.28,0,0,0,2.184-.832,2.907,2.907,0,0,0,.674-.9,2.59,2.59,0,0,0,.25-1.128,2.257,2.257,0,0,0-.15-.792,3.46,3.46,0,0,0-.4-.768,2.721,2.721,0,0,0-.592-.624,1.78,1.78,0,0,0-.728-.344h-2.384a3.6,3.6,0,0,0-.776.45,3.129,3.129,0,0,0-1.04,1.374,2.306,2.306,0,0,0-.152.83Zm10.624,5.936v1.408H823.4a1.021,1.021,0,0,0-.728.25.9.9,0,0,0-.264.7,1.884,1.884,0,0,0,.056.416,3.53,3.53,0,0,0,.136.45l-1.136.224a4.635,4.635,0,0,1-.24-.832,4.424,4.424,0,0,1-.1-.85,1.762,1.762,0,0,1,.462-1.29,1.732,1.732,0,0,1,1.3-.472Zm-13.95,4.624c-.022.138-.038.277-.05.416a3.107,3.107,0,0,0-.016.32.669.669,0,0,0,.086.344.965.965,0,0,0,.344.3,6.137,6.137,0,0,0,.712.344q.456.192,1.192.48l8.352-3.536v1.456l-7.088,2.85,7.088,2.59v1.344l-10.544-4.06a2.439,2.439,0,0,1-.984-.744,2.2,2.2,0,0,1-.424-1.432,2.731,2.731,0,0,1,.016-.3,3.64,3.64,0,0,1,.064-.376Zm10.944,13.616h-8.674V572.5H832.6v1.12l-8.85,7.04h8.834v1.44H821.243v-1.22Zm-8.834,14.16a4.087,4.087,0,0,1,1.294-3.048,4.223,4.223,0,0,1,1.376-.856,4.639,4.639,0,0,1,3.314.012,4.342,4.342,0,0,1,1.376.864,4.188,4.188,0,0,1,.156,5.921c-.051.053-.1.1-.156.155a4.342,4.342,0,0,1-1.376.864,4.639,4.639,0,0,1-3.314.012,4.158,4.158,0,0,1-2.32-2.2,4.109,4.109,0,0,1-.35-1.724Zm4.3-2.768a3.349,3.349,0,0,0-1.216.216,3.062,3.062,0,0,0-.978.592,2.78,2.78,0,0,0-.656.88,2.55,2.55,0,0,0,0,2.16,2.826,2.826,0,0,0,.664.888,3.117,3.117,0,0,0,.992.6,3.433,3.433,0,0,0,1.224.216,3.386,3.386,0,0,0,1.208-.216,3.135,3.135,0,0,0,.992-.6,2.837,2.837,0,0,0,.664-.888,2.493,2.493,0,0,0,.24-1.08,2.409,2.409,0,0,0-.25-1.08,2.822,2.822,0,0,0-.672-.88,3.185,3.185,0,0,0-.992-.592,3.39,3.39,0,0,0-1.216-.216Zm4.206,18.882v1.36l-8.35-3.554v-1.168l4.08-1.68-4.08-1.664v-1.168l8.35-3.55v1.344l-6.96,2.88,3.472,1.408,3.472-1.44v1.168l-2.672,1.024,2.672,1.024v1.166l-3.472-1.424-3.472,1.408Z" fill="#2b2b38"/>
            </g>
            <g id="Group_6151" data-name="Group 6151">
              <path id="Path_133" data-name="Path 133" d="M723.833,356.382q-2.595-4.732-5.155-9.48a.721.721,0,0,0-.747-.434q-15.959.015-31.918,0a.759.759,0,0,0-.782.457q-2.535,4.71-5.112,9.4a.642.642,0,0,0,.06.836q9.051,11.706,18.078,23.435c.75.974,1.5,1.95,2.267,2.938a1.8,1.8,0,0,0,2.53.337,1.751,1.751,0,0,0,.334-.332c3.859-5,14.577-18.893,20.4-26.437A.551.551,0,0,0,723.833,356.382Zm-24.286-8.75c1.622.018,3.245.012,4.866,0a.559.559,0,0,1,.576.319q2.2,4.065,4.429,8.12c.043.081.074.169.13.3H694.359c.091-.186.154-.328.229-.465l4.29-7.866a.662.662,0,0,1,.669-.409Zm-17.912,8.73c.089-.18.16-.338.241-.485q2.142-3.933,4.277-7.869a.592.592,0,0,1,.59-.375q5.2.014,10.407.007c.109,0,.217.018.42.035l-2.274,4.166c-.771,1.408-1.534,2.821-2.323,4.218a.711.711,0,0,1-.5.329c-3.533.018-7.067.013-10.6.012a2.013,2.013,0,0,1-.243-.039Zm18.225,24.166c-5.867-7.61-11.734-15.221-17.682-22.934h.667q4.677,0,9.352-.007c.328,0,.511.062.627.418q3.5,11.067,7.03,22.123A.609.609,0,0,1,699.86,380.528Zm2.161,1.568H701.9q-3.888-12.207-7.788-24.464h15.7Zm2.047-1.582-.108-.05q.549-1.737,1.1-3.475,2.988-9.386,5.967-18.773a.744.744,0,0,1,.831-.648h.023c3,.033,6.01.017,9.015.017h.845l-17.673,22.926ZM721.792,356.4c-3.389,0-6.778-.006-10.166.007a.724.724,0,0,1-.75-.429c-1.4-2.6-2.827-5.187-4.243-7.779-.084-.153-.16-.311-.275-.535.223-.011.391-.028.56-.028h10.166c.259,0,.479-.007.639.289,1.484,2.755,2.987,5.5,4.48,8.25a1.443,1.443,0,0,1,.06.226Z" fill="#262736"/>
              <path id="Path_134" data-name="Path 134" d="M726.189,349.282c-1.829-.141-3.367-.164-4.872-.4a3.347,3.347,0,0,0-3.75,1.763c-.791,1.29-1.742,2.482-2.8,3.967.144-1.9.186-3.511.41-5.094a3.074,3.074,0,0,0-1.594-3.382c-1.346-.84-2.6-1.84-4.124-2.936a41.081,41.081,0,0,1,4.418.362,3.777,3.777,0,0,0,4.45-2.112,36.946,36.946,0,0,1,2.32-3.289l.188.035c-.134,1.716-.231,3.438-.417,5.146a2.7,2.7,0,0,0,1.291,2.768C723.135,347.066,724.52,348.09,726.189,349.282Z" fill="#ffba00"/>
              <path id="Path_135" data-name="Path 135" d="M687.627,341.037c-.019.077-.039.15-.057.229a22.506,22.506,0,0,0-3.083.038,2.63,2.63,0,0,0-1.554.881c-.66.819-1.136,1.785-1.89,2.65,0-1.009-.032-2.02.01-3.028a1.838,1.838,0,0,0-1.031-1.831,12.5,12.5,0,0,1-2.45-1.734,22.175,22.175,0,0,1,2.306.015,2.417,2.417,0,0,0,2.747-1.517,7.612,7.612,0,0,1,1.492-2.078c0,1,.04,1.989-.01,2.981a1.865,1.865,0,0,0,1.06,1.917C686.007,340.017,686.809,340.541,687.627,341.037Z" fill="#ef9322"/>
              <path id="Path_136" data-name="Path 136" d="M702.538,345a1.669,1.669,0,0,0-2.329-.366,1.646,1.646,0,0,0,.385-2.3h0c-.013-.019-.027-.037-.042-.056a1.668,1.668,0,0,0,2.318.436h0l.05-.035a1.593,1.593,0,0,0-.464,2.2A1.181,1.181,0,0,0,702.538,345Z" fill="#ef9322"/>
            </g>
            <g id="Group_6141" data-name="Group 6141">
              <g id="zhNzjN.tif">
                <g id="Group_6137" data-name="Group 6137">
                  <path id="Path_131" data-name="Path 131" d="M839.9,330.992c-.062-.519-.118-1.04-.2-1.557a3.585,3.585,0,0,0-.194-.713.31.31,0,0,0-.382-.217h0a.256.256,0,0,0-.06.023,2.051,2.051,0,0,0-.237.1,2.072,2.072,0,0,1-.2.086c-.128.042-.133.035-.172-.09a11.381,11.381,0,0,0-4.231-5.935,11.636,11.636,0,0,0-6.061-2.2c-.17-.014-.342-.023-.512-.028h-.341a8.015,8.015,0,0,0-1.187.112,15.746,15.746,0,0,0-2.423.583,10.76,10.76,0,0,0-5.265,3.75,13.437,13.437,0,0,0-1.95,3.719c-.016.045-.033.088-.053.141l-.237-.106c-.087-.04-.171-.087-.261-.119a.347.347,0,0,0-.472.127h0a.358.358,0,0,0-.035.083.884.884,0,0,0-.073.193c-.072.379-.15.758-.2,1.139a8.523,8.523,0,0,0-.1,1.454c.02.578,0,1.161.056,1.737a17.935,17.935,0,0,0,.272,1.8,11.509,11.509,0,0,0,1.123,3.183,9.569,9.569,0,0,0,1.1,1.586l.511-.234v-.02l.5-.214q.3.372.63.726a10.968,10.968,0,0,0,4.5,2.97,12.925,12.925,0,0,0,2.869.623,8.5,8.5,0,0,0,1.627.012,13,13,0,0,0,1.789-.292,10.944,10.944,0,0,0,4.683-2.361,14.005,14.005,0,0,0,2.191-2.392c.02-.026.04-.05.076-.1-.089.644-.174,1.258-.26,1.887a.533.533,0,0,0,.071-.054c.21-.216.43-.424.626-.65a9.356,9.356,0,0,0,1.729-3.1,13.029,13.029,0,0,0,.572-2.333c.069-.468.133-.938.159-1.409.032-.576.021-1.153.028-1.728Zm-2.547,4.568a11.2,11.2,0,0,1-6.709,6.973,10.023,10.023,0,0,1-2.128.492,8.919,8.919,0,0,1-1.953.031,9.338,9.338,0,0,1-3.928-1.33,11.734,11.734,0,0,1-3.774-3.542,10.646,10.646,0,0,1-1.52-3.594,11.594,11.594,0,0,1-.294-3.242,8.992,8.992,0,0,1,1.945-5.279,7.859,7.859,0,0,1,2.969-2.225,10.758,10.758,0,0,1,2.632-.781,19.444,19.444,0,0,1,2.959-.257,14.009,14.009,0,0,1,4.507.68,9.16,9.16,0,0,1,2.834,1.5,7.457,7.457,0,0,1,2.467,3.6,9.113,9.113,0,0,1,.417,1.912c.055.566.1,1.134.115,1.7a9.678,9.678,0,0,1-.54,3.36Z" fill="#ef9322"/>
                  <path id="Path_132" data-name="Path 132" d="M837,330.96a10.759,10.759,0,0,1-.947,4.347,6.492,6.492,0,0,1-1.417,2.034c-.05.05-.1.09-.173.153.045-.321.091-.614.127-.908.054-.443.113-.885.145-1.331.026-.369.026-.742.02-1.112a3.627,3.627,0,0,0-.159-.981l-.45.109a12.483,12.483,0,0,0-2.384.819,5.561,5.561,0,0,0-2.039,1.579,6.454,6.454,0,0,0-.97,1.906c-.279.813-.456,1.653-.661,2.486-.18.73-.38,1.454-.572,2.181a.2.2,0,0,1-.05.092c-.063-.2-.135-.4-.187-.6-.217-.861-.427-1.722-.637-2.584a12.359,12.359,0,0,0-.763-2.35,5.632,5.632,0,0,0-2.522-2.611,10.724,10.724,0,0,0-2.6-.939c-.115-.028-.232-.053-.348-.079a.381.381,0,0,0-.059-.007c-.038.174-.085.35-.113.526a6.674,6.674,0,0,0,0,1.872c.078.629.171,1.257.258,1.886a.259.259,0,0,1,0,.062,1.161,1.161,0,0,1-.178-.125,8.084,8.084,0,0,1-1.1-1.45,9.05,9.05,0,0,1-1-2.734,13.461,13.461,0,0,1-.224-3.212,6.939,6.939,0,0,1,.206-1.579c.038-.137.1-.267.145-.4a.13.13,0,0,1,.137-.09,1.149,1.149,0,0,1,.6.136c.454.237.908.477,1.35.731a37.446,37.446,0,0,1,5.641,3.966,5.572,5.572,0,0,1,.99,1.028,2.743,2.743,0,0,1,.394.819c.05-.116.092-.21.136-.3a3.986,3.986,0,0,1,.988-1.283c.578-.5,1.173-.994,1.78-1.465a35.322,35.322,0,0,1,4.906-3.172c.271-.145.542-.289.82-.426a1.013,1.013,0,0,1,.276-.072.249.249,0,0,1,.3.177,2.718,2.718,0,0,1,.15.5A12.7,12.7,0,0,1,837,330.96Z" fill="#ef9322"/>
                </g>
              </g>
              <g id="zQr1Nh.tif">
                <g id="Group_6140" data-name="Group 6140">
                  <g id="Path_141" data-name="Path 141">
                    <path id="Path_212" data-name="Path 212" d="M843.148,382v.565a1.69,1.69,0,0,1-1.69,1.69H813.633a1.69,1.69,0,0,1-1.69-1.69h0V382a2.168,2.168,0,0,1,2.168-2.168h.193a.267.267,0,0,0,.267-.263,13.38,13.38,0,0,1,.25-2.257.221.221,0,0,1,.009-.037,4.3,4.3,0,0,1,4.239-3.109q8.457-.018,16.916,0a4.415,4.415,0,0,1,4.512,4.312h0a4.3,4.3,0,0,1-.067.863c-.226.605.553.483.553.483a2.168,2.168,0,0,1,2.166,2.17h0Z" fill="#ffba00"/>
                    <path id="Path_213" data-name="Path 213" d="M841.455,385.009H813.63a2.443,2.443,0,0,1-2.44-2.44V382a2.923,2.923,0,0,1,2.647-2.906,14.063,14.063,0,0,1,.245-1.929l.016-.067a5.056,5.056,0,0,1,4.987-3.682c5.63-.012,11.322-.01,16.9,0a5.156,5.156,0,0,1,5.234,5.673A2.924,2.924,0,0,1,843.9,382v.565A2.443,2.443,0,0,1,841.455,385.009Zm-27.347-4.427A1.419,1.419,0,0,0,812.69,382v.565a.94.94,0,0,0,.94.94h27.825a.942.942,0,0,0,.94-.94V382a1.42,1.42,0,0,0-1.374-1.417,1.31,1.31,0,0,1-1.162-.4,1.056,1.056,0,0,1-.162-1.025,3.561,3.561,0,0,0,.047-.66A3.667,3.667,0,0,0,836,374.917c-5.591-.013-11.281-.014-16.931,0a3.551,3.551,0,0,0-3.519,2.566,12.507,12.507,0,0,0-.23,2.106,1.021,1.021,0,0,1-1.017.994Z" fill="#2b2b38"/>
                  </g>
                  <path id="Path_143" data-name="Path 143" d="M810.44,366.737A6.5,6.5,0,0,0,807,363.431a.267.267,0,0,1-.148-.346h0a.263.263,0,0,1,.138-.144,6.085,6.085,0,0,0,3.271-3.321.267.267,0,0,1,.348-.144h0a.271.271,0,0,1,.124.1,16.536,16.536,0,0,0,1.457,1.927.4.4,0,0,0,.043.04,15.626,15.626,0,0,0,1.923,1.325.265.265,0,0,1,.1.362h0a.272.272,0,0,1-.122.113,6.158,6.158,0,0,0-3.21,3.382.267.267,0,0,1-.487.01Z" fill="#ffba00"/>
                  <g id="Path_146" data-name="Path 146">
                    <path id="Path_214" data-name="Path 214" d="M828.527,372.382h-2.079a4.456,4.456,0,0,1-4.45-4.45V364.3c-.065-.043-.125-.088-.184-.135a68.738,68.738,0,0,1-12.328-13.707,17.518,17.518,0,0,1-5.7-1.36c-6.19-2.681-9.915-7.22-11.076-13.5a14.827,14.827,0,0,1-.231-2.626q-.021-8.028-.009-16.059a2.886,2.886,0,0,1,2.427-3.125,3.594,3.594,0,0,1,1.594.09c.749.222,1.5.456,2.246.7.05-1.493.219-3.5.325-4.664.005-.055.011-.111.019-.167a3.411,3.411,0,0,1,3.849-2.907,176.8,176.8,0,0,0,51.646-.374l.342-.053.268.228c.267.23.348.3.708,4.1.13,1.365.259,2.934.307,3.893.615-.194,1.226-.408,1.824-.641a3.148,3.148,0,0,1,4.507,3.119c-.053,1.757-.04,3.6-.029,5.384.007,1.034.014,2.069.008,3.1v2.343c.008,2.126.015,4.323-.118,6.489-.473,7.62-6.888,14.388-14.924,15.743-.666.11-1.329.186-1.975.256a72.754,72.754,0,0,1-12.18,13.6,2.716,2.716,0,0,1-.338.244v3.65a4.456,4.456,0,0,1-4.445,4.465ZM795.5,315.238a2.057,2.057,0,0,0-.341.028c-.5.091-1.184.364-1.185,1.65q-.012,8.028.009,16.057a13.328,13.328,0,0,0,.207,2.359c1.064,5.749,4.493,9.917,10.192,12.385a16.035,16.035,0,0,0,5.431,1.255,1.011,1.011,0,0,1,.786.443,67.22,67.22,0,0,0,12.181,13.6.972.972,0,0,0,.146.092,1.022,1.022,0,0,1,.578.9v3.932a2.954,2.954,0,0,0,2.95,2.95h2.079a2.953,2.953,0,0,0,2.95-2.95v-3.944a1.034,1.034,0,0,1,.619-.936,1.182,1.182,0,0,0,.243-.159,71.262,71.262,0,0,0,12.043-13.493,1.029,1.029,0,0,1,.743-.439c.686-.074,1.4-.151,2.1-.266,7.243-1.221,13.25-7.527,13.674-14.356.13-2.117.122-4.29.115-6.391,0-.786-.006-1.571,0-2.357.006-1.028,0-2.056-.008-3.085-.012-1.8-.023-3.655.033-5.487a1.655,1.655,0,0,0-1.46-1.831h-.02a1.639,1.639,0,0,0-.9.163l-.062.028c-.84.327-1.706.622-2.573.875a1.024,1.024,0,0,1-1.265-.7,1,1,0,0,1-.04-.292c.005-1.108-.406-5.554-.626-7.211a178.29,178.29,0,0,1-51.372.269,1.912,1.912,0,0,0-2.156,1.629h0l-.011.093c-.206,2.256-.327,4.152-.333,5.2a1.011,1.011,0,0,1-1.011,1.011,1.027,1.027,0,0,1-.338-.058c-.919-.31-1.866-.61-2.8-.887a2.033,2.033,0,0,0-.586-.077Zm26.748,49.2.032.016Zm10.5-.025-.027.013Zm-33.4-49.631,6.637,29.828.574-.679h0Z" fill="#262736"/>
                  </g>
                  <path id="Path_147" data-name="Path 147" d="M858.587,310.324a9.586,9.586,0,0,0-6.6,2.628.267.267,0,0,1-.377-.011.263.263,0,0,1-.072-.192,9.039,9.039,0,0,0-2.513-6.85.268.268,0,0,1,.015-.378.261.261,0,0,1,.191-.072,9,9,0,0,0,6.871-2.515.267.267,0,0,1,.378.013h0a.269.269,0,0,1,.071.191,9.341,9.341,0,0,0,2.246,6.743.267.267,0,0,1-.032.376h0A.269.269,0,0,1,858.587,310.324Z" fill="#ffba00"/>
                </g>
              </g>
            </g>
            <g id="Group_6170" data-name="Group 6170">
              <rect id="Rectangle_1725" data-name="Rectangle 1725" width="94.5" height="5.5" transform="translate(533.994 525.761)" fill="#ffba00"/>
              <g id="Group_6170-2" data-name="Group 6170-2">
                <path id="Path_193" data-name="Path 193" d="M713.76,569.626l-13.576,8.166a6.206,6.206,0,0,1-8.646-1.505h0a6.207,6.207,0,0,1,1.5-8.646h0l11.684-9.6Z" fill="#fff" stroke="#000" stroke-linecap="round" stroke-miterlimit="10" stroke-width="2"/>
                <path id="Path_194" data-name="Path 194" d="M738.037,558.587,715.821,571.95A10.157,10.157,0,0,1,704,555.428c.044-.032.089-.063.134-.094h0l19.119-15.706Z" fill="#fff" stroke="#000" stroke-linecap="round" stroke-miterlimit="10" stroke-width="2"/>
                <path id="Path_195" data-name="Path 195" d="M770.289,542.982l-32.922,19.807a15.051,15.051,0,0,1-20.969-3.651h0a15.05,15.05,0,0,1,3.65-20.968h0l28.334-23.276Z" fill="#fff" stroke="#000" stroke-linecap="round" stroke-miterlimit="10" stroke-width="2"/>
                <g id="Ellipse_18" data-name="Ellipse 18">
                  <circle id="Ellipse_11" data-name="Ellipse 11" cx="22.094" cy="22.094" r="22.094" transform="translate(741.453 503.879)" fill="#fff"/>
                  <path id="Path_215" data-name="Path 215" d="M763.584,548.812a22.829,22.829,0,1,1,12.07-3.466A22.83,22.83,0,0,1,763.584,548.812Zm-.077-44.19a21.407,21.407,0,1,0,4.843.554,21.4,21.4,0,0,0-4.843-.554Z"/>
                </g>
                <g id="Path_319" data-name="Path 319">
                  <path id="Path_216" data-name="Path 216" d="M774.351,541.335a18.777,18.777,0,0,1-26.154-4.553h0a18.776,18.776,0,0,1,4.557-26.159h0a18.777,18.777,0,0,1,26.16,4.557h0A18.8,18.8,0,0,1,774.351,541.335Z" fill="#c1daee"/>
                  <path id="Path_217" data-name="Path 217" d="M763.576,545.5a19.519,19.519,0,0,1-16-8.286l-.034-.048a19.525,19.525,0,1,1,27.234,4.781h0A19.427,19.427,0,0,1,763.576,545.5Zm-14.739-9.1a18.047,18.047,0,0,0,25.082,4.324h0a18.027,18.027,0,1,0-25.115-4.378h0Z"/>
                </g>
                <g id="Group_6171" data-name="Group 6171">
                  <g id="Path_320" data-name="Path 320">
                    <path id="Path_254" data-name="Path 254" d="M763.212,531.629a2.687,2.687,0,0,1-2.639-2.732h0a2.685,2.685,0,0,1,2.624-2.64h0a2.688,2.688,0,0,1,2.693,2.681h0A2.692,2.692,0,0,1,763.212,531.629Z"/>
                    <path id="Path_255" data-name="Path 255" d="M763.206,532.628H763.2a3.686,3.686,0,0,1-.019-7.371h.008a3.686,3.686,0,1,1,.153,7.37h-.133Zm0-5.371h0a1.686,1.686,0,1,0,1.656,1.637,1.685,1.685,0,0,0-1.656-1.637Z" fill="#fff"/>
                  </g>
                  <g id="Group_6206" data-name="Group 6206">
                    <g id="Line_14" data-name="Line 14">
                      <path id="Path_256" data-name="Path 256" d="M758.051,524.275a1,1,0,0,1-.768-.359l-3.453-4.127a1,1,0,0,1,1.494-1.33.56.56,0,0,1,.039.047l3.453,4.127a1,1,0,0,1-.765,1.642Z" fill="#221a13"/>
                    </g>
                    <g id="Line_15" data-name="Line 15">
                      <path id="Path_257" data-name="Path 257" d="M768.7,524.253a1,1,0,0,1-.768-1.638l3.436-4.14a1,1,0,0,1,1.557,1.255l-.018.022-3.436,4.14A1,1,0,0,1,768.7,524.253Z" fill="#221a13"/>
                    </g>
                    <g id="Line_16" data-name="Line 16">
                      <path id="Path_258" data-name="Path 258" d="M763.351,522.232a1,1,0,0,1-1-1V515.85a1,1,0,0,1,2,0v5.382A1,1,0,0,1,763.351,522.232Z" fill="#221a13"/>
                    </g>
                  </g>
                </g>
              </g>
              <g id="Group_6196" data-name="Group 6196">
                <g id="Group_6196-2-2" data-name="Group 6196-2-2">
                  <path id="Path_292-2" data-name="Path 292-2" d="M555.249,542.882l4.973,15.546h.127l1.3-4.973,3.719-11.032h7.438v1.125l-10.157,28.421h-4.3l-4.68-14.08h-.126l-4.679,14.08h-4.137l-10.286-28.421v-1.126h7.564l3.762,11.032,1.3,4.973h.126l4.889-15.546Z" fill="#2b2b38"/>
                  <path id="Path_293-2" data-name="Path 293-2" d="M592.607,549.112H581.783v4.139h9.95V559.9h-9.95v5.14h11.2v6.646H574.341V542.425H592.6Z" fill="#2b2b38"/>
                  <path id="Path_294" data-name="Path 294" d="M624.947,568H613.415l-1.71,3.678h-7.314V570.6l13.165-28.543h3.218L633.98,570.6v1.086h-7.314Zm-5.809-14.08-3.3,7.689h6.686Z" fill="#2b2b38"/>
                  <path id="Path_295-2-2" data-name="Path 295-2-2" d="M660.237,570.592v1.09h-8.36l-5.016-8.608h-3.885v8.608H635.5V542.425h12.829c11.493.042,13.583,13.874,6.186,18.889Zm-11.911-21.481c-1.755-.042-3.591,0-5.35,0v7.313h5.35c4.053,0,4.262-7.271,0-7.313Z" fill="#2b2b38"/>
                  <path id="Path_296" data-name="Path 296" d="M680.164,549.112H669.337v4.139h9.947V559.9h-9.947v5.14h11.2v6.646H661.9V542.425h18.262Z" fill="#2b2b38"/>
                  <path id="Path_297" data-name="Path 297" d="M567.5,620.306H557.19V604.472H545.02V620.3H534.709V580.864H545.02v14.312h12.171V580.864H567.5Z" fill="#2b2b38"/>
                  <path id="Path_298" data-name="Path 298" d="M589.764,611.463v8.846h-20v-8.846h5.017v-21.8H570.16v-8.791h19.215v8.791h-4.617v21.8Z" fill="#2b2b38"/>
                  <path id="Path_299-2" data-name="Path 299-2" d="M625.1,618.842v1.469H613.83L607.069,608.7h-5.238v11.607H591.745V580.864h17.3c15.5.057,18.314,18.708,8.34,25.469Zm-16.056-28.96c-2.365-.057-4.846,0-7.212,0v9.862h7.212C614.508,599.741,614.789,589.936,609.041,589.882Z" fill="#2b2b38"/>
                  <path id="Path_300-2" data-name="Path 300-2" d="M647.352,611.463v8.846h-20v-8.846h5.018v-21.8h-4.617v-8.791h19.215v8.791H642.34v21.8Z" fill="#2b2b38"/>
                  <path id="Path_301-2" data-name="Path 301-2" d="M659.81,600.923V620.3H649.385V580.694h3.662l19.95,19.5V580.865h10.312v39.5H679.7Z" fill="#2b2b38"/>
                  <path id="Path_302-2" data-name="Path 302-2" d="M706.016,580.356c7.945.057,16.228,4.169,18.144,13.974h-9.918c-1.635-3.381-4.227-4.732-8.227-4.732-6.366,0-9.8,4.959-9.8,10.988,0,6.536,3.831,10.819,9.8,10.819,4.056,0,6.65-1.07,8.45-4.845h-8.4v-8.734h18.65c.227,3.944.227,7.72-1.127,11.55-2.817,8.226-10.312,11.382-17.581,11.382-10.03,0-20.173-6.7-20.229-20.172C685.843,587.12,695.988,580.356,706.016,580.356Z" fill="#2b2b38"/>
                  <path id="Subtraction_1" data-name="Subtraction 1" d="M735.825,600.958h0a10.579,10.579,0,0,0-6.65-2.336H728.9l5.759-38.241,13.111,2.767Z" fill="#ee9222"/>
                  <ellipse id="Ellipse_15" data-name="Ellipse 15" cx="8.75" cy="8.5" rx="8.75" ry="8.5" transform="translate(719.993 602.76)" fill="#ee9222"/>
                </g>
              </g>
            </g>
            <path id="Path_209" data-name="Path 209" d="M560.058,273.932a12.659,12.659,0,0,1-8.4,3.072,17.357,17.357,0,0,1-6.336-1.176,15.157,15.157,0,0,1-5.28-3.432,16.651,16.651,0,0,1-3.6-5.52,19.4,19.4,0,0,1-1.347-7.444,16.626,16.626,0,0,1,5.04-12.072,17.465,17.465,0,0,1,5.544-3.6,17.848,17.848,0,0,1,6.888-1.32,18.966,18.966,0,0,1,4.416.5,15.714,15.714,0,0,1,3.912,1.492,15.383,15.383,0,0,1,3.24,2.35,11.9,11.9,0,0,1,2.35,3.1l-6.958,5.332a7.852,7.852,0,0,0-3.024-3.24,8.085,8.085,0,0,0-4.272-1.224,6.972,6.972,0,0,0-3.072.672,7.164,7.164,0,0,0-2.4,1.872,8.93,8.93,0,0,0-1.584,2.856,11.764,11.764,0,0,0,0,7.272,8.5,8.5,0,0,0,1.608,2.808,7.156,7.156,0,0,0,2.472,1.824,7.766,7.766,0,0,0,3.216.65,9.577,9.577,0,0,0,7.2-3.36h-5.9V258.62h14.016v18.142h-7.728Zm19.15,3.312a9.731,9.731,0,0,1-3.5-.624,8.685,8.685,0,0,1-2.808-1.7,7.823,7.823,0,0,1-1.85-2.568,7.73,7.73,0,0,1-.672-3.216,7.53,7.53,0,0,1,.82-3.5,8.406,8.406,0,0,1,2.256-2.736,10.4,10.4,0,0,1,3.432-1.778,14.647,14.647,0,0,1,4.392-.624,11.821,11.821,0,0,1,5.088.96v-.766a3.245,3.245,0,0,0-1.032-2.64,5.169,5.169,0,0,0-3.336-.864,11.082,11.082,0,0,0-3.984.7,19.547,19.547,0,0,0-3.84,2.04l-2.64-5.664a20.538,20.538,0,0,1,11.376-3.216q6.05,0,9.312,2.688t3.264,8.064v4.9a3.1,3.1,0,0,0,.384,1.8,1.836,1.836,0,0,0,1.344.6v7.68q-1.1.24-2.088.36a14.632,14.632,0,0,1-1.75.12,6.493,6.493,0,0,1-3.72-.888A4.141,4.141,0,0,1,588,273.756l-.192-.912a11.626,11.626,0,0,1-3.888,3.286,10.212,10.212,0,0,1-4.7,1.13Zm2.736-6.53a5.736,5.736,0,0,0,1.68-.264,6.146,6.146,0,0,0,1.536-.7,3.934,3.934,0,0,0,.864-.84,1.562,1.562,0,0,0,.336-.936V266.1a12.97,12.97,0,0,0-1.776-.48,8.8,8.8,0,0,0-1.728-.192,4.554,4.554,0,0,0-2.784.816,2.471,2.471,0,0,0-1.1,2.062,2.116,2.116,0,0,0,.84,1.728,3.314,3.314,0,0,0,2.132.674Zm59.282,6.05h-9.12v-14.21a4.037,4.037,0,0,0-.744-2.712,2.319,2.319,0,0,0-1.8-.84,3.739,3.739,0,0,0-2.328,1.01,5.883,5.883,0,0,0-1.8,2.592v14.158h-9.12V262.554a4.037,4.037,0,0,0-.744-2.712,2.319,2.319,0,0,0-1.8-.84,3.747,3.747,0,0,0-2.326,1.01,5.884,5.884,0,0,0-1.8,2.592v14.158h-9.12v-25.25h8.208v3.744a8.561,8.561,0,0,1,3.7-3.144,13.236,13.236,0,0,1,5.565-1.08,9.019,9.019,0,0,1,2.688.36,6.605,6.605,0,0,1,1.992.984,5.49,5.49,0,0,1,1.344,1.392,6.979,6.979,0,0,1,.792,1.632,9.09,9.09,0,0,1,3.672-3.216,11.785,11.785,0,0,1,5.3-1.15,7.278,7.278,0,0,1,3.96.936,6.46,6.46,0,0,1,2.232,2.328,8.853,8.853,0,0,1,1.008,2.976,19.277,19.277,0,0,1,.24,2.88Zm16.85.48a15.889,15.889,0,0,1-5.9-1.032,12.516,12.516,0,0,1-4.344-2.808,12.108,12.108,0,0,1-2.664-4.08,13.049,13.049,0,0,1-.912-4.85,15.061,15.061,0,0,1,.888-5.184,12,12,0,0,1,2.64-4.272,12.73,12.73,0,0,1,4.32-2.9,17.007,17.007,0,0,1,11.928,0,12.886,12.886,0,0,1,4.344,2.88,11.875,11.875,0,0,1,2.64,4.176,14.1,14.1,0,0,1,.879,4.958q0,.72-.072,1.464t-.168,1.32H653.939a3.546,3.546,0,0,0,1.488,2.9,5.218,5.218,0,0,0,2.928.888,6.12,6.12,0,0,0,2.808-.672,3.386,3.386,0,0,0,1.75-1.872l7.728,2.208a12.173,12.173,0,0,1-4.728,4.944,14.951,14.951,0,0,1-7.844,1.922Zm4.032-15.792a4.684,4.684,0,0,0-1.344-2.88,4.325,4.325,0,0,0-5.664,0,4.684,4.684,0,0,0-1.344,2.88Zm23.189,15.79a19.982,19.982,0,0,1-6.48-1.08,14.7,14.7,0,0,1-5.376-3.144l3.12-5.472A24.072,24.072,0,0,0,681.1,270a10.989,10.989,0,0,0,4.008.864q1.92,0,1.92-1.2a1.369,1.369,0,0,0-.744-1.15,12.477,12.477,0,0,0-2.9-1.1,43.015,43.015,0,0,1-4.488-1.512,13,13,0,0,1-2.928-1.608,5.126,5.126,0,0,1-1.612-1.924,6.012,6.012,0,0,1-.48-2.5,8.226,8.226,0,0,1,.768-3.55,8.6,8.6,0,0,1,2.136-2.832,9.592,9.592,0,0,1,3.264-1.85,12.777,12.777,0,0,1,4.15-.65,19.218,19.218,0,0,1,5.3.72,13.5,13.5,0,0,1,5.064,2.928L691.1,260.1a24.743,24.743,0,0,0-3.936-2.184,7.88,7.88,0,0,0-2.976-.65,2.6,2.6,0,0,0-1.344.312,1.06,1.06,0,0,0-.528.984,1.347,1.347,0,0,0,.768,1.176,13.252,13.252,0,0,0,3.024,1.032,34.67,34.67,0,0,1,4.608,1.512,12.081,12.081,0,0,1,3,1.728,5.392,5.392,0,0,1,1.608,2.112,7.157,7.157,0,0,1,.48,2.712,8.179,8.179,0,0,1-.72,3.5A7.38,7.38,0,0,1,693,274.982a9.514,9.514,0,0,1-3.312,1.68,15.455,15.455,0,0,1-4.388.58Zm15.452-14.88V242.346h9.12v20.016Zm0,14.4v-8.83h9.12v8.832Z" fill="#262736"/>
            <path id="Path_232" data-name="Path 232" d="M-62.857-21.36h1.14l4.348,10.646h-1.439l-1.26-3.119h-4.468l-1.245,3.119H-67.22Zm2.489,6.478L-62.287-19.8l-1.979,4.918Zm3.344-1.23a5.69,5.69,0,0,1,.337-1.912,5.316,5.316,0,0,1,.99-1.709,4.983,4.983,0,0,1,1.6-1.222,4.793,4.793,0,0,1,2.144-.465,4.479,4.479,0,0,1,2.444.645A4.009,4.009,0,0,1-48-19.1l-1.065.69a3.09,3.09,0,0,0-.577-.855,2.963,2.963,0,0,0-.735-.555,3.163,3.163,0,0,0-.817-.3,3.929,3.929,0,0,0-.825-.09,3.253,3.253,0,0,0-1.567.367,3.623,3.623,0,0,0-1.147.96,4.15,4.15,0,0,0-.7,1.335,4.968,4.968,0,0,0-.232,1.492,4.606,4.606,0,0,0,.277,1.6,4.4,4.4,0,0,0,.772,1.342,3.761,3.761,0,0,0,1.17.93,3.182,3.182,0,0,0,1.469.345,3.728,3.728,0,0,0,.862-.1,3.16,3.16,0,0,0,.847-.337,3.618,3.618,0,0,0,.757-.585,2.854,2.854,0,0,0,.577-.847l1.125.615a3.314,3.314,0,0,1-.712,1.057,4.506,4.506,0,0,1-1.035.772,5.268,5.268,0,0,1-1.222.48,5.072,5.072,0,0,1-1.26.165,4.259,4.259,0,0,1-2.009-.48,5.364,5.364,0,0,1-1.582-1.252,5.729,5.729,0,0,1-1.035-1.754A5.672,5.672,0,0,1-57.024-16.112ZM-38.43-20.16H-42.1v9.447h-1.35V-20.16h-3.674v-1.2h8.7Zm1.529,9.447V-21.36h1.35v10.646Zm4.2-10.646,3.524,8.952,3.509-8.952h1.425l-4.348,10.646h-1.17L-34.127-21.36Zm17.124,9.447v1.2h-7.227V-21.36h7.093v1.2h-5.743v3.449h4.993v1.125h-4.993v3.674ZM-75.257-.132a2.22,2.22,0,0,0-.48-.4,4.269,4.269,0,0,0-.675-.352,4.743,4.743,0,0,0-.817-.255,4.274,4.274,0,0,0-.922-.1,2.9,2.9,0,0,0-1.822.465A1.548,1.548,0,0,0-80.551.5a1.42,1.42,0,0,0,.165.72,1.359,1.359,0,0,0,.517.487,3.947,3.947,0,0,0,.877.352q.525.15,1.245.315a12.934,12.934,0,0,1,1.492.412,4.344,4.344,0,0,1,1.14.577,2.312,2.312,0,0,1,.72.84,2.7,2.7,0,0,1,.247,1.215,2.781,2.781,0,0,1-.3,1.327,2.66,2.66,0,0,1-.817.93,3.541,3.541,0,0,1-1.222.54,6.426,6.426,0,0,1-1.529.172A7.063,7.063,0,0,1-80.348,8a6.517,6.517,0,0,1-2-1.117l.645-1.14a3.579,3.579,0,0,0,.622.51,5.071,5.071,0,0,0,.87.457,6.447,6.447,0,0,0,1.05.33,5.311,5.311,0,0,0,1.177.127,3.265,3.265,0,0,0,1.769-.4,1.348,1.348,0,0,0,.63-1.215,1.347,1.347,0,0,0-.2-.757,1.718,1.718,0,0,0-.592-.532,4.555,4.555,0,0,0-.967-.4q-.577-.172-1.312-.352a13.11,13.11,0,0,1-1.425-.42,3.881,3.881,0,0,1-1.027-.54,2.037,2.037,0,0,1-.622-.765,2.536,2.536,0,0,1-.21-1.08,3.045,3.045,0,0,1,.285-1.35,2.832,2.832,0,0,1,.795-.99,3.468,3.468,0,0,1,1.215-.607,5.522,5.522,0,0,1,1.529-.2,5.462,5.462,0,0,1,1.949.33,5.459,5.459,0,0,1,1.544.885Zm2.879,8.412V-2.367h1.35V8.28ZM-67.13.153V8.28h-1.35V-2.367h1.05l6.6,8.292V-2.352h1.35V8.28h-1.14Zm9.507,2.729A5.69,5.69,0,0,1-57.286.97,5.316,5.316,0,0,1-56.3-.74a4.983,4.983,0,0,1,1.6-1.222,4.793,4.793,0,0,1,2.144-.465,4.479,4.479,0,0,1,2.444.645A4.01,4.01,0,0,1-48.6-.1l-1.065.69a3.09,3.09,0,0,0-.577-.855,2.964,2.964,0,0,0-.735-.555,3.162,3.162,0,0,0-.817-.3,3.929,3.929,0,0,0-.825-.09,3.253,3.253,0,0,0-1.567.367,3.623,3.623,0,0,0-1.147.96,4.15,4.15,0,0,0-.7,1.335,4.968,4.968,0,0,0-.232,1.492,4.606,4.606,0,0,0,.277,1.6,4.4,4.4,0,0,0,.772,1.342,3.761,3.761,0,0,0,1.17.93,3.182,3.182,0,0,0,1.469.345,3.728,3.728,0,0,0,.862-.1,3.16,3.16,0,0,0,.847-.337,3.618,3.618,0,0,0,.757-.585,2.854,2.854,0,0,0,.577-.847L-48.4,5.9a3.314,3.314,0,0,1-.712,1.057,4.506,4.506,0,0,1-1.035.772,5.268,5.268,0,0,1-1.222.48,5.072,5.072,0,0,1-1.26.165,4.259,4.259,0,0,1-2.009-.48,5.364,5.364,0,0,1-1.582-1.252,5.729,5.729,0,0,1-1.035-1.754A5.672,5.672,0,0,1-57.624,2.882Zm18.144,4.2v1.2h-7.228V-2.367h7.093v1.2h-5.743V2.282h4.993V3.406h-4.993V7.08Zm5.008,1.2a6.159,6.159,0,0,1,.1-1.125,3.247,3.247,0,0,1,.367-1,3.757,3.757,0,0,1,.742-.915,6.778,6.778,0,0,1,1.237-.87q.45-.24.915-.472a7.134,7.134,0,0,0,.847-.495,3.033,3.033,0,0,0,.63-.562,1.073,1.073,0,0,0,.247-.7,1.188,1.188,0,0,0-.12-.51,1.356,1.356,0,0,0-.345-.45,1.737,1.737,0,0,0-.562-.315,2.3,2.3,0,0,0-.772-.12A2.481,2.481,0,0,0-32,.865a2.927,2.927,0,0,0-.652.315,3.127,3.127,0,0,0-.495.4q-.21.21-.345.375l-.855-.96a3.757,3.757,0,0,1,.4-.367,4.858,4.858,0,0,1,.72-.472,5.191,5.191,0,0,1,1-.412,4.392,4.392,0,0,1,1.275-.172A3.874,3.874,0,0,1-29.7-.245a2.776,2.776,0,0,1,.937.517,2.333,2.333,0,0,1,.592.772,2.159,2.159,0,0,1,.21.937A1.98,1.98,0,0,1-28.219,3a3.186,3.186,0,0,1-.622.765,4.275,4.275,0,0,1-.787.562q-.42.232-.75.4t-.742.4a6.34,6.34,0,0,0-.787.525,3.662,3.662,0,0,0-.652.652,1.776,1.776,0,0,0-.352.78H-27.8v1.2ZM-18.7,3.886a5.593,5.593,0,0,1-.285,1.822,4.458,4.458,0,0,1-.795,1.44,3.622,3.622,0,0,1-1.207.945,3.414,3.414,0,0,1-1.507.337,3.448,3.448,0,0,1-1.522-.337,3.546,3.546,0,0,1-1.2-.945A4.54,4.54,0,0,1-26,5.708a5.593,5.593,0,0,1-.285-1.822A5.593,5.593,0,0,1-26,2.064a4.54,4.54,0,0,1,.787-1.44,3.63,3.63,0,0,1,1.2-.952,3.385,3.385,0,0,1,1.522-.345,3.352,3.352,0,0,1,1.507.345,3.709,3.709,0,0,1,1.207.952,4.458,4.458,0,0,1,.795,1.44A5.593,5.593,0,0,1-18.7,3.886Zm-1.335,0a4.791,4.791,0,0,0-.18-1.35,3.3,3.3,0,0,0-.51-1.057A2.348,2.348,0,0,0-21.5.8a2.07,2.07,0,0,0-.99-.24A2.145,2.145,0,0,0-23.5.8a2.255,2.255,0,0,0-.78.682,3.4,3.4,0,0,0-.5,1.057,4.791,4.791,0,0,0-.18,1.35,4.77,4.77,0,0,0,.18,1.357,3.313,3.313,0,0,0,.5,1.042,2.285,2.285,0,0,0,.78.675,2.145,2.145,0,0,0,1.012.24,2.07,2.07,0,0,0,.99-.24,2.381,2.381,0,0,0,.78-.675,3.219,3.219,0,0,0,.51-1.042A4.77,4.77,0,0,0-20.032,3.886Zm10.541,0a5.593,5.593,0,0,1-.285,1.822,4.459,4.459,0,0,1-.795,1.44,3.622,3.622,0,0,1-1.207.945,3.414,3.414,0,0,1-1.507.337,3.448,3.448,0,0,1-1.522-.337,3.546,3.546,0,0,1-1.2-.945,4.54,4.54,0,0,1-.787-1.44,5.593,5.593,0,0,1-.285-1.822,5.593,5.593,0,0,1,.285-1.822,4.54,4.54,0,0,1,.787-1.44,3.63,3.63,0,0,1,1.2-.952,3.385,3.385,0,0,1,1.522-.345,3.352,3.352,0,0,1,1.507.345A3.709,3.709,0,0,1-10.57.625a4.459,4.459,0,0,1,.795,1.44A5.593,5.593,0,0,1-9.49,3.886Zm-1.335,0A4.791,4.791,0,0,0-11,2.537a3.3,3.3,0,0,0-.51-1.057A2.348,2.348,0,0,0-12.294.8a2.07,2.07,0,0,0-.99-.24A2.145,2.145,0,0,0-14.3.8a2.255,2.255,0,0,0-.78.682,3.4,3.4,0,0,0-.5,1.057,4.791,4.791,0,0,0-.18,1.35,4.77,4.77,0,0,0,.18,1.357,3.313,3.313,0,0,0,.5,1.042,2.285,2.285,0,0,0,.78.675,2.145,2.145,0,0,0,1.012.24,2.07,2.07,0,0,0,.99-.24,2.381,2.381,0,0,0,.78-.675A3.219,3.219,0,0,0-11,5.243,4.77,4.77,0,0,0-10.825,3.886Zm10.571.87A3.528,3.528,0,0,1-.546,6.188a3.664,3.664,0,0,1-.81,1.17,3.792,3.792,0,0,1-1.207.787,3.889,3.889,0,0,1-1.5.285,3.832,3.832,0,0,1-1.567-.315,3.416,3.416,0,0,1-1.222-.907,4.162,4.162,0,0,1-.787-1.44,6.182,6.182,0,0,1-.277-1.927A11.787,11.787,0,0,1-7.631,1.09a6.116,6.116,0,0,1,.81-1.964,3.477,3.477,0,0,1,1.26-1.177,3.432,3.432,0,0,1,1.634-.39,3.663,3.663,0,0,1,1.882.495A3.466,3.466,0,0,1-.718-.552l-.81.795A2.612,2.612,0,0,0-2.5-.875a2.616,2.616,0,0,0-1.44-.412,2.23,2.23,0,0,0-1.11.277,2.5,2.5,0,0,0-.855.817A4.2,4.2,0,0,0-6.461,1.12a7.7,7.7,0,0,0-.21,1.762A2.682,2.682,0,0,1-5.607,1.637a3.074,3.074,0,0,1,1.679-.465,3.748,3.748,0,0,1,1.44.277,3.6,3.6,0,0,1,1.17.765,3.612,3.612,0,0,1,.78,1.14A3.464,3.464,0,0,1-.253,4.756ZM-4.047,7.29a2.415,2.415,0,0,0,.975-.2,2.6,2.6,0,0,0,.81-.547,2.627,2.627,0,0,0,.547-.8,2.4,2.4,0,0,0,.2-.982,2.416,2.416,0,0,0-.2-.975,2.512,2.512,0,0,0-.547-.8,2.67,2.67,0,0,0-.81-.54,2.415,2.415,0,0,0-.975-.2,2.4,2.4,0,0,0-.982.2,2.7,2.7,0,0,0-.8.54,2.512,2.512,0,0,0-.547.8,2.415,2.415,0,0,0-.2.975,2.4,2.4,0,0,0,.2.982,2.627,2.627,0,0,0,.547.8,2.627,2.627,0,0,0,.8.547A2.4,2.4,0,0,0-4.047,7.29Z" transform="translate(625.977 429.537)" fill="#262736"/>
          </g>
          <path id="Path_259" data-name="Path 259" d="M815.527,318.122a6.151,6.151,0,0,1-3.1-3.09,1.1,1.1,0,0,0-.51-.51,1.038,1.038,0,0,0-1.35.51,5.8,5.8,0,0,1-3.27,3.09.99.99,0,0,0-.55.55,1.021,1.021,0,0,0,.554,1.333l.016.007a6.069,6.069,0,0,1,3.5,3.45l.29.72,1-.43.12-.29a6.275,6.275,0,0,1,3.29-3.48,1.019,1.019,0,0,0,.01-1.86Zm-4.02,3.43a7.725,7.725,0,0,0-2.68-2.5,7.165,7.165,0,0,0,2.67-2.57,7.721,7.721,0,0,0,2.57,2.57A7.744,7.744,0,0,0,811.507,321.552Z" fill="#262736"/>
          <path id="Path_260" data-name="Path 260" d="M814.9,319.491" fill="#262736"/>
          <path id="Path_261" data-name="Path 261" d="M814.9,318.612" fill="#262736"/>
          <path id="Path_262" data-name="Path 262" d="M811.054,315.653" fill="#262736"/>
          <path id="Path_263" data-name="Path 263" d="M807.317,343.922a61.955,61.955,0,0,1-5.66-15.42,58.087,58.087,0,0,1-1.25-8.19,1.02,1.02,0,0,0-.71-.9l-1.36-.42a.92.92,0,0,0-.29-.05.941.941,0,0,0-.73.29,1.014,1.014,0,0,0-.31.73v14.96l.14-.15a13.473,13.473,0,0,0,8.91,10.58,1.047,1.047,0,0,0,.35.06,1,1,0,0,0,.48-.12,1.016,1.016,0,0,0,.431-1.37Zm-8.81-10.93v-12.38l.43.14a59.593,59.593,0,0,0,1.25,8.08,63.9,63.9,0,0,0,5.2,14.62A11.737,11.737,0,0,1,798.507,332.992Z" fill="#262736"/>
          <path id="Path_264" data-name="Path 264" d="M857.9,319.682a.993.993,0,0,0-.49-.61,1.006,1.006,0,0,0-.78-.08l-1.42.44a1.009,1.009,0,0,0-.71.9,59,59,0,0,1-6.8,23.56,1.03,1.03,0,0,0,.431,1.391l.059.029a.977.977,0,0,0,.41.08,1.043,1.043,0,0,0,.35-.06,13.307,13.307,0,0,0,8.99-12.56v-12.81A.882.882,0,0,0,857.9,319.682Zm-1.46,13.09a11.677,11.677,0,0,1-6.8,10.63,60.322,60.322,0,0,0,6.34-22.64l.47-.14Q856.447,326.7,856.437,332.772Z" fill="#262736"/>
        </g>
      </g>
    </g>
  </g>
</svg>
